<svg xmlns="http://www.w3.org/2000/svg" xmlns:xlink="http://www.w3.org/1999/xlink" width="263" height="78" viewBox="0 0 263 78">
  <defs>
    <clipPath id="clip-Banner_app_store">
      <rect width="263" height="78"/>
    </clipPath>
  </defs>
  <g id="Banner_app_store" clip-path="url(#clip-Banner_app_store)">
    <rect id="Rectangle_3839" data-name="Rectangle 3839" width="262.775" height="78.385" rx="16" fill="#141414" stroke="#b9b9b9" stroke-width="1"/>
    <g id="Group_6147" data-name="Group 6147" transform="translate(685.662 -641.708)">
      <g id="Group_6046" data-name="Group 6046" transform="translate(-638.662 660.708)">
        <path id="Path_14377" data-name="Path 14377" d="M-541.9-435.834a8.866,8.866,0,0,0,1.051,15.754,14.27,14.27,0,0,1-1.52,3.579c-.968,1.553-2.008,3.064-3.086,4.544a6.078,6.078,0,0,1-2.535,2.05,5.223,5.223,0,0,1-3.966-.014c-.859-.314-1.695-.713-2.575-.949a7.727,7.727,0,0,0-4.966.415,20.155,20.155,0,0,1-2.632.883,3.956,3.956,0,0,1-3.272-.7,13.021,13.021,0,0,1-2.886-3,24.875,24.875,0,0,1-4.871-11.62,15.276,15.276,0,0,1,.983-8.844,9.814,9.814,0,0,1,7.136-5.807,7.652,7.652,0,0,1,4.376.376c.761.285,1.524.567,2.274.878a3.82,3.82,0,0,0,3.007,0,32.889,32.889,0,0,1,3.5-1.245,9.444,9.444,0,0,1,9.73,3.335C-542.073-436.085-542-435.968-541.9-435.834Z" transform="translate(573.394 449.462)" fill="#fff"/>
        <path id="Path_14378" data-name="Path 14378" d="M504.186-340.86h2.8l.2,2.316c.1-.117.161-.174.208-.241a5.461,5.461,0,0,1,5.089-2.376,5.723,5.723,0,0,1,5.259,4.045,9.593,9.593,0,0,1-.151,7.442,6.237,6.237,0,0,1-7.706,3.667,4.11,4.11,0,0,1-2.342-1.778v7.674h-3.352Zm3.344,7.57h0c0,.465-.013.93,0,1.394a3.613,3.613,0,0,0,2.731,3.476,3.508,3.508,0,0,0,4.141-2.127,7.257,7.257,0,0,0,.067-5.725,3.422,3.422,0,0,0-2.076-2.066,3.576,3.576,0,0,0-4.694,2.667A19.584,19.584,0,0,0,507.53-333.29Z" transform="translate(-420.632 358.455)" fill="#f2f2f2"/>
        <path id="Path_14379" data-name="Path 14379" d="M288.465-327.76v7.535h-3.338v-20.736h2.8l.194,2.337c.122-.159.2-.247.262-.344a5.86,5.86,0,0,1,8.55-.856,7.238,7.238,0,0,1,2.186,4.133,10.3,10.3,0,0,1-.489,5.676,6.186,6.186,0,0,1-4.95,4.088,6.241,6.241,0,0,1-2.985-.22A4.811,4.811,0,0,1,288.465-327.76Zm7.455-5.842a6.045,6.045,0,0,0-.8-3.339,3.3,3.3,0,0,0-3.363-1.678,3.532,3.532,0,0,0-3.18,3.155,22.927,22.927,0,0,0-.1,3.474,3.588,3.588,0,0,0,2.617,3.444,3.547,3.547,0,0,0,4.115-1.842A6.549,6.549,0,0,0,295.92-333.6Z" transform="translate(-218.559 358.561)" fill="#f2f2f2"/>
        <path id="Path_14380" data-name="Path 14380" d="M780.108-414.328l-.83,2.646c-.161-.072-.285-.129-.411-.183a7.594,7.594,0,0,0-4.988-.546,2.547,2.547,0,0,0-1.987,3.233,2.415,2.415,0,0,0,1.126,1.475c.777.454,1.6.834,2.4,1.247a32.714,32.714,0,0,1,2.973,1.562,5.274,5.274,0,0,1,2.459,5.215,5.34,5.34,0,0,1-3.583,4.78,10.949,10.949,0,0,1-8.484-.237,6.956,6.956,0,0,1-.624-.342l.757-2.706c.541.238,1.032.494,1.549.675a8.116,8.116,0,0,0,4.832.351,2.791,2.791,0,0,0,2.235-2.217,2.832,2.832,0,0,0-1.282-3.127,23.63,23.63,0,0,0-2.267-1.159A29.268,29.268,0,0,1,771-405.2a5.02,5.02,0,0,1-2.437-5.158,5.237,5.237,0,0,1,3.609-4.372,10.231,10.231,0,0,1,7.669.256C779.921-414.436,780-414.387,780.108-414.328Z" transform="translate(-664.135 426.883)" fill="#f2f2f2"/>
        <path id="Path_14381" data-name="Path 14381" d="M1109.921-333.425a7.888,7.888,0,0,1-1.88,5.547,6.424,6.424,0,0,1-4.652,2.241,9.616,9.616,0,0,1-2.764-.2,6.487,6.487,0,0,1-4.946-5.341,8.784,8.784,0,0,1,.652-5.97,6.635,6.635,0,0,1,5.9-3.83,7.093,7.093,0,0,1,4.908,1.3,7.122,7.122,0,0,1,2.782,5.363C1109.943-334.021,1109.921-333.722,1109.921-333.425Zm-3.385.025a6.422,6.422,0,0,0-1-3.66,3.368,3.368,0,0,0-5.712.036,6.18,6.18,0,0,0-.948,2.913,6.936,6.936,0,0,0,.861,4.329,3.328,3.328,0,0,0,5.835.053A6.568,6.568,0,0,0,1106.536-333.4Z" transform="translate(-966.037 358.296)" fill="#f2f2f2"/>
        <path id="Path_14382" data-name="Path 14382" d="M1452.916-333.358h-9.787a3.957,3.957,0,0,0,2.624,4.024,7.6,7.6,0,0,0,3.789.184c.721-.108,1.427-.315,2.185-.488l.5,2.209a9.673,9.673,0,0,1-2.721.768,11.619,11.619,0,0,1-4.352-.065,6.3,6.3,0,0,1-4.952-4.844,9.185,9.185,0,0,1,.546-6.39,6.586,6.586,0,0,1,8.016-3.7,5.529,5.529,0,0,1,3.9,4.05A9.1,9.1,0,0,1,1453-333.7,3.231,3.231,0,0,1,1452.916-333.358Zm-9.818-2.386h6.839c-.042-.4-.054-.773-.125-1.137a3.146,3.146,0,0,0-4.847-2.231A4.439,4.439,0,0,0,1443.1-335.745Z" transform="translate(-1283.768 359.14)" fill="#f2f2f2"/>
        <path id="Path_14383" data-name="Path 14383" d="M965.455-368.8c0,.758.008,1.506-.01,2.253a.382.382,0,0,1-.218.281,6.818,6.818,0,0,1-3.746.1,3.5,3.5,0,0,1-2.543-3.063,12.751,12.751,0,0,1-.161-1.965c-.019-2.313-.007-4.626-.007-6.939v-.458h-2.132v-2.465h2.132v-1.966a3.06,3.06,0,0,1,.009-.541.381.381,0,0,1,.2-.26c.981-.311,1.968-.6,3.014-.922v3.659h3.593v2.5c-.805,0-1.6,0-2.4,0-.372,0-.9-.119-1.075.073-.2.219-.1.725-.1,1.106q0,3.256.027,6.512a3.283,3.283,0,0,0,.111.764,1.7,1.7,0,0,0,1.867,1.441C964.446-368.7,964.883-368.755,965.455-368.8Z" transform="translate(-838 398.65)" fill="#f2f2f2"/>
        <path id="Path_14384" data-name="Path 14384" d="M1326.925-341.073v3.124a10.79,10.79,0,0,0-1.7.014,3.168,3.168,0,0,0-2.617,2.627,6.717,6.717,0,0,0-.179,1.609c-.018,2.39-.008,4.78-.008,7.17v.478h-3.337V-340.8h2.794q.068,1.382.135,2.762C1322.967-340.153,1324.455-341.357,1326.925-341.073Z" transform="translate(-1172.344 358.401)" fill="#f2f2f2"/>
        <path id="Path_14385" data-name="Path 14385" d="M-356.815-564.056a8.075,8.075,0,0,1-.672,4.14,8.19,8.19,0,0,1-5.483,4.908,11,11,0,0,1-1.452.2c-.316.043-.427-.092-.437-.409a8.062,8.062,0,0,1,1.066-4.187,8.925,8.925,0,0,1,6.293-4.583A6.671,6.671,0,0,1-356.815-564.056Z" transform="translate(381.032 564.056)" fill="#fff"/>
        <path id="Path_14386" data-name="Path 14386" d="M43.106-390.954q-3.2-9.922-6.4-19.845a.4.4,0,0,0-.466-.329c-1.111.015-2.222.019-3.333,0a.467.467,0,0,0-.541.391q-2.616,8.18-5.252,16.354c-.4,1.238-.793,2.476-1.208,3.771,1.062,0,2.056-.012,3.049.008a.408.408,0,0,0,.474-.357c.527-1.781,1.074-3.555,1.6-5.336.074-.248.167-.349.445-.348q2.984.02,5.968,0a.4.4,0,0,1,.454.341q.786,2.531,1.605,5.051c.256.785.032.628.88.638.926.011,1.852,0,2.807,0C43.156-390.757,43.137-390.857,43.106-390.954Zm-11.316-8.237h0c.784-2.654,1.568-5.308,2.321-7.859l.321-1.087,2.731,8.946Z" transform="translate(20.561 422.988)" fill="#f2f2f2"/>
      </g>
    </g>
  </g>
</svg>
