<svg xmlns="http://www.w3.org/2000/svg" xmlns:xlink="http://www.w3.org/1999/xlink" width="263" height="78" viewBox="0 0 263 78">
  <defs>
    <linearGradient id="linear-gradient" x1="0.914" y1="0.05" x2="-0.384" y2="0.719" gradientUnits="objectBoundingBox">
      <stop offset="0" stop-color="#00a0ff"/>
      <stop offset="0.007" stop-color="#00a1ff"/>
      <stop offset="0.26" stop-color="#00beff"/>
      <stop offset="0.512" stop-color="#00d2ff"/>
      <stop offset="0.76" stop-color="#00dfff"/>
      <stop offset="1" stop-color="#00e3ff"/>
    </linearGradient>
    <linearGradient id="linear-gradient-2" x1="1.074" y1="0.501" x2="-1.304" y2="0.501" gradientUnits="objectBoundingBox">
      <stop offset="0" stop-color="#ffe000"/>
      <stop offset="0.409" stop-color="#ffbd00"/>
      <stop offset="0.775" stop-color="orange"/>
      <stop offset="1" stop-color="#ff9c00"/>
    </linearGradient>
    <linearGradient id="linear-gradient-3" x1="0.862" y1="0.179" x2="-0.501" y2="1.948" gradientUnits="objectBoundingBox">
      <stop offset="0" stop-color="#ff3a44"/>
      <stop offset="1" stop-color="#c31162"/>
    </linearGradient>
    <linearGradient id="linear-gradient-4" x1="-0.188" y1="-0.543" x2="0.421" y2="0.248" gradientUnits="objectBoundingBox">
      <stop offset="0" stop-color="#32a071"/>
      <stop offset="0.069" stop-color="#2da771"/>
      <stop offset="0.476" stop-color="#15cf74"/>
      <stop offset="0.801" stop-color="#06e775"/>
      <stop offset="1" stop-color="#00f076"/>
    </linearGradient>
    <clipPath id="clip-Banner_google_play">
      <rect width="263" height="78"/>
    </clipPath>
  </defs>
  <g id="Banner_google_play" clip-path="url(#clip-Banner_google_play)">
    <rect id="Rectangle_3840" data-name="Rectangle 3840" width="262.775" height="78.385" rx="16" fill="#141414" stroke="#b9b9b9" stroke-width="1"/>
    <g id="google-play-3" transform="translate(-11.926 -193.646)">
      <path id="Path_14369" data-name="Path 14369" d="M389.177,350.3a7.685,7.685,0,1,0,7.708,7.685A7.567,7.567,0,0,0,389.177,350.3Zm0,12.347a4.673,4.673,0,1,1,4.343-4.661A4.464,4.464,0,0,1,389.177,362.65Zm20.646-10.619h-.114a5.284,5.284,0,0,0-4.047-1.728,7.692,7.692,0,0,0,0,15.371,5.218,5.218,0,0,0,4.047-1.751h.114v1.114c0,2.933-1.569,4.5-4.093,4.5a4.235,4.235,0,0,1-3.865-2.729l-2.933,1.228a7.324,7.324,0,0,0,6.821,4.548c3.956,0,7.3-2.319,7.3-8v-13.8h-3.206Zm-3.865,10.619a4.679,4.679,0,0,1,0-9.322c2.3,0,4.093,1.978,4.093,4.684S408.254,362.65,405.957,362.65ZM372.351,350.3a7.685,7.685,0,1,0,7.708,7.685,7.567,7.567,0,0,0-7.708-7.685Zm0,12.347a4.673,4.673,0,1,1,4.343-4.661A4.464,4.464,0,0,1,372.351,362.65Zm-20.032-10V355.9h7.8a6.781,6.781,0,0,1-1.773,4.116,7.982,7.982,0,0,1-6.025,2.387,8.664,8.664,0,0,1,0-17.326,8.412,8.412,0,0,1,5.889,2.319l2.3-2.3a11.4,11.4,0,0,0-8.186-3.3,11.939,11.939,0,1,0,0,23.875,10.9,10.9,0,0,0,8.322-3.342,10.748,10.748,0,0,0,2.819-7.617,11.041,11.041,0,0,0-.182-2.046Zm81.855,2.569a7.122,7.122,0,0,0-6.571-4.889,7.309,7.309,0,0,0-7.253,7.685,7.52,7.52,0,0,0,7.617,7.685,7.658,7.658,0,0,0,6.412-3.411l-2.615-1.751a4.383,4.383,0,0,1-3.774,2.115,3.956,3.956,0,0,1-3.729-2.319l10.277-4.252Zm-10.459,2.547a4.2,4.2,0,0,1,4.025-4.479,2.921,2.921,0,0,1,2.842,1.637Zm-8.367,7.458h3.365V342.641h-3.365ZM450,342.641h-8.072V365.22h3.365V356.67H450a7.025,7.025,0,1,0,0-14.029Zm.091,10.846h-4.8v-7.731h4.8a3.866,3.866,0,1,1,0,7.731Zm9.186,11.733h3.365V342.641h-3.365Zm11.642-14.961a6.343,6.343,0,0,0-6.025,3.456l3,1.251a3.177,3.177,0,0,1,3.07-1.66c1.751,0,3.524,1.046,3.547,2.91v.227a7.561,7.561,0,0,0-3.524-.864c-3.229,0-6.5,1.774-6.5,5.093,0,3.024,2.638,4.957,5.616,4.957a4.744,4.744,0,0,0,4.3-2.206h.114v1.751h3.251v-8.663C477.785,352.509,474.784,350.258,470.919,350.258Zm-.409,12.392c-1.114,0-2.638-.546-2.638-1.91,0-1.751,1.91-2.41,3.57-2.41a5.976,5.976,0,0,1,3.07.75A4.06,4.06,0,0,1,470.509,362.65Zm19.122-11.892-3.865,9.8h-.114l-4-9.8h-3.638l6,13.688-3.433,7.64h3.524l9.277-21.305h-3.752Z" transform="translate(-249.457 -121.549)" fill="#f2f2f2"/>
      <path id="Path_14370" data-name="Path 14370" d="M135.028,311.036a3.111,3.111,0,0,0-.728,2.183v34.4a3.111,3.111,0,0,0,.728,2.183l.114.114,19.282-19.281v-.455L135.141,310.9Z" transform="translate(-90.085 -97.675)" fill="url(#linear-gradient)"/>
      <path id="Path_14371" data-name="Path 14371" d="M229.212,380.724l-6.412-6.435v-.455l6.435-6.435.136.091,7.617,4.32c2.183,1.228,2.183,3.251,0,4.5l-7.617,4.32Z" transform="translate(-158.751 -141.328)" fill="url(#linear-gradient-2)"/>
      <path id="Path_14372" data-name="Path 14372" d="M163.466,403.271,156.9,396.7l-19.4,19.4c.7.75,1.91.864,3.229.091Z" transform="translate(-92.846 -163.966)" fill="url(#linear-gradient-3)"/>
      <path id="Path_14373" data-name="Path 14373" d="M163.466,322.25l-22.738-12.915c-1.342-.75-2.524-.659-3.229.091l19.4,19.4Z" transform="translate(-92.846 -96.17)" fill="url(#linear-gradient-4)"/>
      <path id="Path_14374" data-name="Path 14374" d="M163.307,425l-22.578,12.824c-1.273.728-2.387.682-3.115.023l-.114.114.114.114a2.567,2.567,0,0,0,3.115-.023l22.738-12.915Z" transform="translate(-92.846 -185.831)" opacity="0.2"/>
      <path id="Path_14375" data-name="Path 14375" d="M135.028,415.868a3.111,3.111,0,0,1-.728-2.183v.227a3.111,3.111,0,0,0,.728,2.183l.114-.114Zm33.561-17.144-7.754,4.411.136.136,7.617-4.32a2.726,2.726,0,0,0,1.637-2.251A2.865,2.865,0,0,1,168.588,398.724Z" transform="translate(-90.374 -163.966)" opacity="0.12"/>
      <path id="Path_14376" data-name="Path 14376" d="M138.256,309.461,168.588,326.7a2.924,2.924,0,0,1,1.637,2.024,2.726,2.726,0,0,0-1.637-2.251l-30.332-17.235c-2.183-1.228-3.956-.2-3.956,2.274v.227C134.3,309.257,136.074,308.233,138.256,309.461Z" transform="translate(-90.374 -95.986)" fill="#fff" opacity="0.25"/>
    </g>
  </g>
</svg>
