<?xml version="1.0" standalone="no"?>
<!DOCTYPE svg PUBLIC "-//W3C//DTD SVG 20010904//EN"
 "http://www.w3.org/TR/2001/REC-SVG-20010904/DTD/svg10.dtd">
<svg version="1.0" xmlns="http://www.w3.org/2000/svg"
 width="621.000000pt" height="649.000000pt" viewBox="0 0 621.000000 649.000000"
 preserveAspectRatio="xMidYMid meet">

<g transform="translate(0.000000,649.000000) scale(0.100000,-0.100000)"
fill="#0066b4" stroke="none">
<path d="M5485 6483 c-182 -22 -472 -131 -720 -270 -106 -59 -285 -169 -348
-215 l-39 -27 -71 36 c-434 218 -896 322 -1382 310 -299 -8 -513 -41 -784
-123 -610 -185 -1174 -600 -1540 -1134 -448 -652 -611 -1468 -450 -2253 30
-148 115 -426 158 -517 12 -25 19 -36 15 -25 -54 180 -106 444 -125 643 -17
176 -6 566 20 714 45 248 108 443 211 653 113 228 230 396 377 540 329 321
760 352 1034 73 161 -164 220 -454 174 -853 -18 -154 -40 -249 -96 -422 -82
-253 -185 -481 -527 -1168 -308 -617 -380 -781 -490 -1111 -177 -532 -160
-931 48 -1135 211 -206 548 -179 1075 86 305 153 571 328 905 593 302 240 551
479 935 897 908 988 1553 1935 1880 2760 134 336 256 740 306 1005 30 164 37
409 15 521 -46 225 -187 383 -376 419 -51 10 -142 11 -205 3z m-24 -303 c81
-22 157 -101 184 -192 20 -67 20 -231 -1 -339 -31 -168 -95 -360 -188 -562
l-36 -79 -71 99 c-199 275 -435 507 -706 697 -46 32 -83 61 -83 64 0 14 170
116 302 181 261 130 449 171 599 131z"/>
<path d="M5833 3827 c-136 -527 -687 -1422 -1327 -2157 -140 -161 -455 -473
-621 -615 -240 -207 -526 -412 -720 -517 -98 -53 -90 -55 114 -33 1132 118
2081 868 2454 1941 113 324 157 604 157 984 -1 197 -18 462 -32 475 -2 2 -13
-33 -25 -78z"/>
</g>
</svg>
